<svg width="160" height="44" viewBox="0 0 160 44" fill="none" xmlns="http://www.w3.org/2000/svg">
<g clip-path="url(#clip0)">
<path d="M65.6148 25.8746H70.4317L68.6091 19.8328C68.6091 19.7015 68.4789 19.3075 68.3487 18.9134C68.2185 18.5194 68.0883 17.994 67.9581 17.3373C67.8279 17.7313 67.6978 18.2567 67.6978 18.6507C67.5676 19.0448 67.4374 19.4388 67.4374 19.8328L65.6148 25.8746ZM58.7148 32.5731L64.9638 14.4478H71.0826L77.3316 32.5731H72.5147L71.6034 29.2895H64.5733L63.662 32.5731H58.7148ZM83.5806 32.5731H79.024V14.4478H84.1013C86.0541 14.4478 87.4862 14.5791 88.2673 14.7104C89.0485 14.9731 89.8296 15.2358 90.3503 15.7612C91.0013 16.2866 91.522 17.0746 91.9126 17.8627C92.3031 18.6507 92.4333 19.5701 92.4333 20.6209C92.4333 21.6716 92.3031 22.591 91.9126 23.5104C91.522 24.2985 91.0013 24.9552 90.3503 25.4806C89.8296 25.8746 89.1786 26.1373 88.5277 26.4C87.8768 26.5313 86.7051 26.6627 85.273 26.6627H84.4919H83.5806V32.5731ZM83.5806 22.591H84.4919C85.6636 22.591 86.4447 22.4597 86.9655 22.0657C87.4862 21.803 87.6164 21.1463 87.6164 20.3582C87.6164 19.5701 87.356 19.0448 86.9655 18.7821C86.4447 18.5194 85.6636 18.2567 84.4919 18.2567H83.4504V22.591H83.5806ZM98.4219 25.8746H103.239L101.546 19.8328C101.546 19.7015 101.416 19.3075 101.286 18.9134C101.156 18.5194 101.026 17.994 100.895 17.3373C100.765 17.7313 100.635 18.2567 100.635 18.6507C100.505 19.0448 100.375 19.4388 100.375 19.8328L98.4219 25.8746ZM91.522 32.5731L97.771 14.4478H103.89L110.139 32.5731H105.322L104.411 29.2895H97.3804L96.4691 32.5731H91.522ZM111.831 32.5731V14.4478H116.909C118.861 14.4478 120.293 14.5791 121.074 14.7104C121.856 14.8418 122.507 15.2358 123.157 15.6298C123.808 16.1552 124.329 16.8119 124.59 17.4687C124.98 18.2567 125.11 19.0448 125.11 19.9642C125.11 21.409 124.72 22.4597 124.069 23.3791C123.418 24.2985 122.376 24.8239 121.074 25.0866L126.022 32.4418H120.424L116.258 25.3492V32.4418H111.831V32.5731ZM116.518 22.9851H117.429C118.471 22.9851 119.252 22.8537 119.773 22.4597C120.293 22.0657 120.554 21.5403 120.554 20.7522C120.554 19.8328 120.293 19.1761 119.903 18.7821C119.382 18.3881 118.731 18.2567 117.559 18.2567H116.518V22.9851ZM130.578 32.5731V18.7821H126.542V14.4478H139.561V18.7821H135.525V32.7045H130.578V32.5731ZM160 23.5104C160 24.8239 159.74 26.006 159.35 27.1881C158.829 28.3701 158.178 29.2895 157.267 30.2089C156.355 31.1284 155.314 31.7851 154.142 32.3104C152.97 32.8358 151.799 33.0985 150.497 33.0985C149.195 33.0985 148.023 32.8358 146.852 32.3104C145.68 31.7851 144.638 31.1284 143.727 30.2089C142.816 29.2895 142.035 28.2388 141.644 27.1881C141.123 26.006 140.863 24.8239 140.863 23.5104C140.863 22.197 141.123 21.0149 141.644 19.8328C142.165 18.6507 142.816 17.7313 143.727 16.8119C144.638 15.8925 145.68 15.2358 146.852 14.7104C148.023 14.1851 149.195 13.9224 150.497 13.9224C151.799 13.9224 152.97 14.1851 154.142 14.7104C155.314 15.2358 156.355 15.8925 157.267 16.8119C158.178 17.7313 158.829 18.7821 159.35 19.8328C159.74 21.0149 160 22.3284 160 23.5104ZM150.367 28.8955C151.668 28.8955 152.84 28.3701 153.751 27.3194C154.663 26.2687 155.053 25.0866 155.053 23.5104C155.053 21.9343 154.663 20.7522 153.751 19.7015C152.84 18.6507 151.668 18.1254 150.367 18.1254C149.065 18.1254 147.893 18.6507 146.982 19.7015C146.07 20.7522 145.68 21.9343 145.68 23.5104C145.68 25.0866 146.07 26.4 146.982 27.3194C147.763 28.3701 148.935 28.8955 150.367 28.8955Z" fill="#0A836C"/>
<path d="M25.9072 1.31343L37.7543 22.0657L50.2522 44H30.0732L26.9487 38.4836L27.3393 38.3522C27.4695 38.3522 27.4695 38.3522 27.5997 38.2209H27.7299H27.86C28.1204 38.0896 28.3808 37.9582 28.511 37.8269C28.7714 37.6955 28.9015 37.4328 29.1619 37.3015C29.6827 36.7761 30.0732 36.2507 30.3336 35.4627C30.594 34.806 30.7242 34.1493 30.7242 33.3612C30.7242 32.5731 30.594 31.9164 30.3336 31.2597C30.0732 30.603 29.6827 29.9463 29.1619 29.4209C28.6412 28.8955 28.1204 28.5015 27.3393 28.2388C26.6884 27.9761 26.0374 27.8448 25.2563 27.8448C24.4752 27.8448 23.8242 27.9761 23.1733 28.2388C22.5224 28.5015 21.8714 28.8955 21.3507 29.4209C20.8299 29.9463 20.4394 30.4716 20.179 31.2597C19.9186 31.9164 19.7884 32.5731 19.7884 33.3612C19.7884 33.7552 19.9186 34.4119 20.0488 34.9373C20.3092 35.594 20.5696 36.2507 20.8299 36.7761C22.262 39.1403 23.5639 41.7672 24.9959 44.1313H0C8.33198 29.2895 16.7941 14.7104 25.1261 0L25.9072 1.31343ZM30.9845 42.2925H43.2221L25.2563 10.7701L7.29048 42.2925H22.1318L19.3979 37.4328C19.1375 36.9075 18.8771 36.2507 18.6168 35.594C18.3564 34.806 18.2262 34.0179 18.2262 33.3612C18.2262 32.4418 18.3564 31.5224 18.7469 30.603C19.1375 29.6836 19.6583 28.8955 20.3092 28.2388C20.9601 27.5821 21.7413 27.0567 22.6526 26.6627C23.4337 26.2687 24.4752 26.1373 25.3865 26.1373C26.2978 26.1373 27.2091 26.2687 28.1204 26.6627C29.0317 27.0567 29.8129 27.5821 30.4638 28.2388C31.1147 28.8955 31.6355 29.6836 32.026 30.603C32.4166 31.391 32.5468 32.4418 32.5468 33.3612C32.5468 34.2806 32.4166 35.2 32.026 36.1194C31.6355 37.0388 31.1147 37.8269 30.4638 38.4836C30.3336 38.6149 30.0732 38.8776 29.8129 39.009C29.6827 39.1403 29.5525 39.1403 29.4223 39.2716L30.9845 42.2925ZM45.1749 42.2925H47.3881L36.4524 23.1164L25.1261 3.41493L14.0602 22.7224L2.9943 42.2925H5.20749C11.847 30.603 18.4866 19.0448 25.2563 7.35522C31.8958 19.0448 38.5354 30.603 45.1749 42.2925Z" fill="#0A836C"/>
</g>
<defs>
<clipPath id="clip0">
<rect width="160" height="44" fill="white"/>
</clipPath>
</defs>
</svg>
