<?xml version="1.0" encoding="UTF-8" standalone="no"?> <svg width="64" height="64" viewBox="0 0 64 64" fill="none" xmlns="http://www.w3.org/2000/svg">
<path d="M32 28H18V52H32V28Z" fill="#FCEA42"/>
<path d="M32 46V52H18V28H21V41C21 42.3261 21.5268 43.5979 22.4645 44.5355C23.4021 45.4732 24.6739 46 26 46H32Z" fill="#FDC741"/>
<path d="M40 35H32V52H40V35Z" fill="#ADE8F4"/>
<path d="M40 43H32V39H35L40 43Z" fill="#48CAE4"/>
<path d="M40 39H32V35H35L40 39Z" fill="#48CAE4"/>
<path d="M40 47H32V43H35L40 47Z" fill="#48CAE4"/>
<path d="M28 32H18V36H28V32Z" fill="#ADE8F4"/>
<path d="M28 36H18V40H28V36Z" fill="#ADE8F4"/>
<path d="M28 40H18V44H28V40Z" fill="#ADE8F4"/>
<path d="M32 24H24V28H32V24Z" fill="#FDC741"/>
<path d="M25 36L21 32H18V36H25Z" fill="#48CAE4"/>
<path d="M25 40L21 36H18V40H25Z" fill="#48CAE4"/>
<path d="M18 40V44H25L21 40H18Z" fill="#48CAE4"/>
<path d="M35 43V35H32V52H40V47H39C37.9391 47 36.9217 46.5786 36.1716 45.8284C35.4214 45.0783 35 44.0609 35 43Z" fill="#00B4D8"/>
<path d="M21 41V40H18V44H22.024C21.3631 43.1392 21.0033 42.0852 21 41V41Z" fill="#00B4D8"/>
<path d="M21 36H18V40H21V36Z" fill="#00B4D8"/>
<path d="M21 32H18V36H21V32Z" fill="#00B4D8"/>
<path d="M32 26V28H24V24H26C26 24.5304 26.2107 25.0391 26.5858 25.4142C26.9609 25.7893 27.4696 26 28 26H32Z" fill="#EFAD1B"/>
<path d="M61 16.75V11.25H58.746C58.5828 10.7375 58.375 10.2402 58.125 9.764L59.725 8.164L55.834 4.277L54.234 5.877C53.7578 5.62699 53.2605 5.4192 52.748 5.256V3H47.248V5.254C46.7355 5.4172 46.2382 5.62499 45.762 5.875L44.162 4.275L40.277 8.166L41.877 9.766C41.627 10.2422 41.4192 10.7395 41.256 11.252H39V16.752H41.254C41.4172 17.2645 41.625 17.7618 41.875 18.238L40.275 19.838L44.164 23.727L45.764 22.127C46.2402 22.377 46.7375 22.5848 47.25 22.748V25H52.75V22.746C53.2625 22.5828 53.7598 22.375 54.236 22.125L55.836 23.725L59.725 19.836L58.125 18.236C58.375 17.7598 58.5828 17.2625 58.746 16.75H61ZM50 19C49.0111 19 48.0444 18.7068 47.2221 18.1573C46.3999 17.6079 45.759 16.827 45.3806 15.9134C45.0022 14.9998 44.9031 13.9945 45.0961 13.0245C45.289 12.0546 45.7652 11.1637 46.4645 10.4645C47.1637 9.7652 48.0546 9.289 49.0245 9.09607C49.9945 8.90315 50.9998 9.00216 51.9134 9.3806C52.827 9.75904 53.6079 10.3999 54.1573 11.2221C54.7068 12.0444 55 13.0111 55 14C55 15.3261 54.4732 16.5979 53.5355 17.5355C52.5979 18.4732 51.3261 19 50 19Z" fill="#B8BEBF"/>
<path d="M59.1 19.21C57.7966 19.7335 56.4047 20.0017 55 20C53.3988 19.9904 51.8176 19.6428 50.36 18.98C50.2408 18.9966 50.1203 19.0033 50 19C48.6739 19 47.4021 18.4732 46.4645 17.5355C45.5268 16.5979 45 15.3261 45 14C44.9967 13.8797 45.0034 13.7592 45.02 13.64C44.5269 12.5782 44.2095 11.4435 44.08 10.28C43.8571 8.45548 44.1014 6.60424 44.79 4.9L44.17 4.28L40.28 8.17L41.88 9.76C41.6293 10.2384 41.4185 10.7368 41.25 11.25H39V16.75H41.25C41.4185 17.2632 41.6293 17.7616 41.88 18.24L40.28 19.83L44.17 23.72L45.76 22.12C46.2384 22.3707 46.7368 22.5815 47.25 22.75V25H52.75V22.75C53.2632 22.5815 53.7616 22.3707 54.24 22.12L55.83 23.72L59.72 19.83L59.1 19.21Z" fill="#93999A"/>
<path d="M53.72 19.92C52.6094 20.6296 51.318 21.0046 50 21C48.1435 21 46.363 20.2625 45.0503 18.9497C43.7375 17.637 43 15.8565 43 14C42.9955 12.682 43.3704 11.3906 44.08 10.28C44.2095 11.4435 44.527 12.5782 45.02 13.64C45.0034 13.7592 44.9967 13.8797 45 14C45 15.3261 45.5268 16.5979 46.4645 17.5355C47.4022 18.4732 48.6739 19 50 19C50.1204 19.0033 50.2408 18.9966 50.36 18.98C51.4218 19.4731 52.5565 19.7905 53.72 19.92V19.92Z" fill="#93999A"/>
<path d="M50 7C48.6155 7 47.2622 7.41054 46.111 8.17971C44.9599 8.94888 44.0627 10.0421 43.5328 11.3212C43.003 12.6003 42.8644 14.0078 43.1345 15.3656C43.4046 16.7235 44.0713 17.9708 45.0503 18.9497C46.0292 19.9287 47.2765 20.5954 48.6344 20.8655C49.9922 21.1356 51.3997 20.997 52.6788 20.4672C53.9579 19.9373 55.0511 19.0401 55.8203 17.889C56.5895 16.7379 57 15.3845 57 14C57.0007 13.0806 56.82 12.17 56.4685 11.3204C56.1169 10.4709 55.6014 9.69893 54.9512 9.04879C54.3011 8.39865 53.5291 7.88306 52.6796 7.53151C51.83 7.17996 50.9194 6.99934 50 7V7ZM50 19C49.0111 19 48.0444 18.7068 47.2222 18.1574C46.3999 17.6079 45.759 16.827 45.3806 15.9134C45.0022 14.9998 44.9032 13.9945 45.0961 13.0246C45.289 12.0546 45.7652 11.1637 46.4645 10.4645C47.1637 9.76521 48.0546 9.289 49.0246 9.09608C49.9945 8.90315 50.9998 9.00217 51.9134 9.3806C52.8271 9.75904 53.6079 10.3999 54.1574 11.2222C54.7068 12.0444 55 13.0111 55 14C55 15.3261 54.4732 16.5979 53.5355 17.5355C52.5979 18.4732 51.3261 19 50 19Z" fill="#93999A"/>
<path d="M50.36 18.98C50.2408 18.9966 50.1204 19.0033 50 19C48.6739 19 47.4022 18.4732 46.4645 17.5355C45.5268 16.5979 45 15.3261 45 14C44.9967 13.8797 45.0034 13.7592 45.02 13.64C44.527 12.5782 44.2095 11.4435 44.08 10.28C43.3704 11.3906 42.9955 12.682 43 14C43 15.8565 43.7375 17.637 45.0503 18.9497C46.363 20.2625 48.1435 21 50 21C51.318 21.0046 52.6094 20.6296 53.72 19.92C52.5565 19.7905 51.4218 19.4731 50.36 18.98Z" fill="#656B76"/>
<path d="M53.72 19.92C52.6094 20.6296 51.318 21.0046 50 21C48.1435 21 46.363 20.2625 45.0503 18.9497C43.7375 17.637 43 15.8565 43 14C42.9955 12.682 43.3704 11.3906 44.08 10.28C44.2095 11.4435 44.527 12.5782 45.02 13.64C45.0034 13.7592 44.9967 13.8797 45 14C45 15.3261 45.5268 16.5979 46.4645 17.5355C47.4022 18.4732 48.6739 19 50 19C50.1204 19.0033 50.2408 18.9966 50.36 18.98C51.4218 19.4731 52.5565 19.7905 53.72 19.92V19.92Z" fill="#656B76"/>
<path d="M16.928 11C16.9278 10.6331 16.8944 10.2669 16.828 9.906L18.86 8.732L16.86 5.268L14.823 6.442C14.2641 5.96396 13.6216 5.5934 12.928 5.349V3H8.928V5.349C8.2327 5.59307 7.58853 5.96364 7.028 6.442L5 5.268L3 8.732L5.033 9.906C4.89301 10.6286 4.89301 11.3714 5.033 12.094L3 13.268L5 16.732L7.033 15.558C7.59367 16.0362 8.2378 16.4067 8.933 16.651V19H12.933V16.651C13.6266 16.4066 14.2691 16.036 14.828 15.558L16.861 16.732L18.861 13.268L16.829 12.094C16.895 11.7331 16.9282 11.3669 16.928 11V11ZM10.928 13C10.5324 13 10.1458 12.8827 9.81686 12.6629C9.48796 12.4432 9.23162 12.1308 9.08024 11.7654C8.92887 11.3999 8.88926 10.9978 8.96643 10.6098C9.0436 10.2219 9.23408 9.86549 9.51379 9.58579C9.79349 9.30608 10.1499 9.1156 10.5378 9.03843C10.9258 8.96126 11.3279 9.00087 11.6934 9.15224C12.0588 9.30362 12.3712 9.55996 12.5909 9.88886C12.8107 10.2178 12.928 10.6044 12.928 11C12.928 11.5304 12.7173 12.0391 12.3422 12.4142C11.9671 12.7893 11.4584 13 10.928 13Z" fill="#B8BEBF"/>
<path d="M18.26 12.92C16.9527 13.6307 15.488 14.0021 14 14C11.6601 14.001 9.41197 13.0896 7.7333 11.4595C6.05462 9.82935 5.07767 7.60895 5.01 5.27H5L3 8.73L5.03 9.91C4.89666 10.6306 4.89666 11.3695 5.03 12.09L3 13.27L5 16.73L7.03 15.56C7.59348 16.0334 8.23689 16.4025 8.93 16.65V19H12.93V16.65C13.6211 16.4047 14.2616 16.0353 14.82 15.56L16.86 16.73L18.86 13.27L18.26 12.92Z" fill="#93999A"/>
<path d="M11 7C10.2089 7 9.43552 7.2346 8.77772 7.67412C8.11992 8.11365 7.60723 8.73836 7.30448 9.46927C7.00173 10.2002 6.92252 11.0044 7.07686 11.7804C7.2312 12.5563 7.61216 13.269 8.17157 13.8284C8.73098 14.3878 9.44372 14.7688 10.2196 14.9231C10.9956 15.0775 11.7998 14.9983 12.5307 14.6955C13.2616 14.3928 13.8864 13.8801 14.3259 13.2223C14.7654 12.5645 15 11.7911 15 11C15 9.93913 14.5786 8.92172 13.8284 8.17157C13.0783 7.42143 12.0609 7 11 7ZM10.93 13C10.5344 13 10.1478 12.8827 9.81886 12.6629C9.48996 12.4432 9.23362 12.1308 9.08224 11.7654C8.93087 11.3999 8.89126 10.9978 8.96843 10.6098C9.0456 10.2219 9.23608 9.86549 9.51579 9.58579C9.79549 9.30608 10.1519 9.1156 10.5398 9.03843C10.9278 8.96126 11.3299 9.00087 11.6954 9.15224C12.0608 9.30362 12.3732 9.55996 12.5929 9.88886C12.8127 10.2178 12.93 10.6044 12.93 11C12.93 11.5304 12.7193 12.0391 12.3442 12.4142C11.9691 12.7893 11.4604 13 10.93 13Z" fill="#93999A"/>
<path d="M7.032 10.684C7.023 10.79 7 10.892 7 11C6.9968 11.7707 7.21727 12.5258 7.63468 13.1737C8.05209 13.8216 8.64852 14.3345 9.35163 14.6502C10.0547 14.9658 10.8343 15.0707 11.5959 14.9521C12.3574 14.8335 13.0682 14.4965 13.642 13.982C12.3691 13.9337 11.1212 13.6145 9.98135 13.0458C8.84155 12.4771 7.83608 11.672 7.032 10.684V10.684Z" fill="#656B76"/>
<path d="M53 39.448V32.548L49.227 32.288C49.0108 31.0278 48.6821 29.7895 48.245 28.588L51.375 26.481L47.926 20.509L44.526 22.17C43.7078 21.1918 42.8042 20.2882 41.826 19.47L43.487 16.07L37.515 12.621L35.408 15.751C34.2064 15.314 32.9681 14.9853 31.708 14.769L31.448 11H24.548L24.288 14.773C23.0278 14.9892 21.7895 15.3179 20.588 15.755L18.481 12.625L12.509 16.074L14.17 19.474C13.1915 20.292 12.2879 21.1955 11.47 22.174L8.07 20.513L4.625 26.486L7.755 28.593C7.31786 29.7945 6.98922 31.0328 6.773 32.293L3 32.552V39.452L6.773 39.712C6.98922 40.9722 7.31786 42.2105 7.755 43.412L4.625 45.519L8.073 51.491L11.473 49.83C12.2931 50.8082 13.1983 51.7117 14.178 52.53L12.517 55.93L18.489 59.379L20.596 56.249C21.7975 56.6861 23.0358 57.0148 24.296 57.231L24.552 61H31.452L31.712 57.227C32.9721 57.0107 34.2104 56.682 35.412 56.245L37.519 59.375L43.491 55.926L41.83 52.526C42.808 51.7075 43.7115 50.804 44.53 49.826L47.93 51.487L51.379 45.515L48.249 43.408C48.6861 42.2065 49.0148 40.9682 49.231 39.708L53 39.448ZM28 52C24.8355 52 21.7421 51.0616 19.1109 49.3035C16.4797 47.5454 14.4289 45.0466 13.2179 42.1229C12.0069 39.1993 11.6901 35.9823 12.3074 32.8786C12.9248 29.7749 14.4487 26.9239 16.6863 24.6863C18.9239 22.4487 21.7749 20.9248 24.8786 20.3074C27.9823 19.6901 31.1993 20.0069 34.1229 21.2179C37.0466 22.4289 39.5454 24.4797 41.3035 27.1109C43.0616 29.7421 44 32.8355 44 36C44 40.2435 42.3143 44.3131 39.3137 47.3137C36.3131 50.3143 32.2435 52 28 52V52Z" fill="#E9F1F2"/>
<path d="M42 48C40.9336 47.9994 39.8682 47.9326 38.81 47.8C35.7738 50.6068 31.7689 52.1292 27.6349 52.0481C23.5009 51.967 19.5589 50.2886 16.6351 47.3649C13.7114 44.4411 12.033 40.4991 11.9519 36.3651C11.8708 32.2311 13.3932 28.2262 16.2 25.19C15.6934 21.137 16.1526 17.0217 17.54 13.18L12.51 16.07L14.17 19.47C13.1966 20.2934 12.2934 21.1966 11.47 22.17L8.07 20.51L4.63 26.49L7.75 28.59C7.31594 29.7924 6.98802 31.0304 6.77 32.29L3 32.55V39.45L6.77 39.71C6.98802 40.9696 7.31594 42.2076 7.75 43.41L4.63 45.51L8.07 51.49L11.47 49.83C12.2934 50.8034 13.1966 51.7066 14.17 52.53L12.51 55.93L18.49 59.37L20.59 56.25C21.7924 56.6841 23.0304 57.012 24.29 57.23L24.55 61H31.45L31.71 57.23C32.9696 57.012 34.2076 56.6841 35.41 56.25L37.51 59.37L43.49 55.93L41.83 52.53C42.8034 51.7066 43.7066 50.8034 44.53 49.83L47.93 51.49L50.82 46.46C47.9925 47.4844 45.0074 48.0056 42 48V48Z" fill="#D0D8DA"/>
<path d="M28 17C24.2422 17 20.5687 18.1143 17.4442 20.2021C14.3196 22.2898 11.8844 25.2572 10.4463 28.729C9.00823 32.2008 8.63197 36.0211 9.36509 39.7067C10.0982 43.3924 11.9078 46.7778 14.565 49.435C17.2222 52.0922 20.6077 53.9018 24.2933 54.6349C27.9789 55.368 31.7992 54.9918 35.271 53.5537C38.7428 52.1156 41.7102 49.6804 43.7979 46.5558C45.8857 43.4313 47 39.7578 47 36C47 30.9609 44.9982 26.1282 41.435 22.565C37.8718 19.0018 33.0391 17 28 17V17ZM28 52C24.8355 52 21.7421 51.0616 19.1109 49.3035C16.4797 47.5454 14.4289 45.0466 13.2179 42.1229C12.0069 39.1993 11.6901 35.9823 12.3074 32.8786C12.9248 29.7749 14.4487 26.9239 16.6863 24.6863C18.9239 22.4487 21.7749 20.9248 24.8786 20.3074C27.9823 19.6901 31.1993 20.0069 34.1229 21.2179C37.0466 22.4289 39.5454 24.4797 41.3035 27.1109C43.0616 29.7421 44 32.8355 44 36C44 40.2435 42.3143 44.3131 39.3137 47.3137C36.3131 50.3143 32.2435 52 28 52V52Z" fill="#B8BEBF"/>
<path d="M42.74 47.98C41.0654 50.0522 38.9738 51.7491 36.6008 52.9604C34.2279 54.1718 31.6267 54.8706 28.9661 55.0113C26.3056 55.1521 23.6452 54.7318 21.1576 53.7776C18.6701 52.8235 16.411 51.3568 14.5271 49.4729C12.6432 47.589 11.1765 45.3299 10.2224 42.8424C9.26822 40.3548 8.84789 37.6944 8.98867 35.0339C9.12946 32.3733 9.82821 29.7721 11.0396 27.3992C12.2509 25.0262 13.9478 22.9346 16.02 21.26C16 21.51 16 21.75 16 22C16.0006 23.0664 16.0674 24.1318 16.2 25.19C13.3932 28.2262 11.8708 32.2311 11.9519 36.3651C12.033 40.4991 13.7114 44.4411 16.6351 47.3649C19.5589 50.2886 23.5009 51.967 27.6349 52.0481C31.7689 52.1292 35.7738 50.6068 38.81 47.8C39.8682 47.9326 40.9336 47.9994 42 48C42.25 48 42.49 48 42.74 47.98Z" fill="#93999A"/>
<path d="M28 21C31.3299 20.9934 34.5653 22.1068 37.186 24.161C37.2894 24.2443 37.4084 24.3062 37.536 24.343C37.6636 24.3799 37.7972 24.3909 37.9291 24.3755C38.061 24.3602 38.1885 24.3187 38.3042 24.2535C38.4199 24.1883 38.5215 24.1007 38.603 23.9959C38.6845 23.891 38.7442 23.771 38.7788 23.6427C38.8134 23.5145 38.8221 23.3807 38.8044 23.2491C38.7868 23.1175 38.743 22.9907 38.6758 22.8762C38.6086 22.7616 38.5193 22.6616 38.413 22.582C35.442 20.2538 31.7745 18.9922 28 19C24.6377 19 21.3509 19.997 18.5553 21.865C15.7597 23.733 13.5807 26.388 12.2941 29.4944C11.0074 32.6007 10.6707 36.0189 11.3267 39.3165C11.9826 42.6142 13.6017 45.6433 15.9792 48.0208C18.3567 50.3983 21.3858 52.0174 24.6835 52.6734C27.9811 53.3293 31.3993 52.9926 34.5056 51.706C37.612 50.4193 40.267 48.2403 42.135 45.4447C44.003 42.6491 45 39.3623 45 36C45.0081 32.2253 43.7469 28.5575 41.419 25.586C41.2562 25.3765 41.0168 25.2402 40.7535 25.2072C40.4902 25.1742 40.2245 25.2472 40.015 25.41C39.8055 25.5728 39.6692 25.8123 39.6362 26.0756C39.6032 26.3389 39.6762 26.6045 39.839 26.814C41.6688 29.1557 42.757 31.9908 42.9639 34.9555C43.1708 37.9201 42.4869 40.8789 41 43.452V35C41 34.7348 40.8947 34.4804 40.7071 34.2929C40.5196 34.1054 40.2652 34 40 34H33V24C33 23.7348 32.8947 23.4804 32.7071 23.2929C32.5196 23.1054 32.2652 23 32 23H24C23.7348 23 23.4804 23.1054 23.2929 23.2929C23.1054 23.4804 23 23.7348 23 24V27H18C17.7348 27 17.4804 27.1054 17.2929 27.2929C17.1054 27.4804 17 27.7348 17 28V46.164C15.016 44.0264 13.6992 41.356 13.2115 38.4806C12.7237 35.6051 13.0862 32.6499 14.2543 29.9776C15.4225 27.3052 17.3455 25.0322 19.7873 23.4374C22.2292 21.8426 25.0835 20.9954 28 21V21ZM19 33H20.586L22.586 35H19V33ZM25.414 43L23.414 41H27V43H25.414ZM19 41H20.586L22.586 43H19V41ZM19 37H20.586L22.586 39H19V37ZM27 37V39H25.414L23.414 37H27ZM27 35H25.414L23.414 33H27V35ZM33 46V44H39V46H33ZM39 42H33V40H39V42ZM33 48H36.962C35.756 48.9039 34.4202 49.6204 33 50.125V48ZM39 36V38H33V36H39ZM25 25H31V27H25V25ZM31 29V50.7C30.0126 50.9001 29.0075 51.0006 28 51C24.7501 50.9992 21.5895 49.9359 19 47.972V45H28C28.2652 45 28.5196 44.8946 28.7071 44.7071C28.8947 44.5196 29 44.2652 29 44V32C29 31.7348 28.8947 31.4804 28.7071 31.2929C28.5196 31.1054 28.2652 31 28 31H19V29H31Z" fill="#323232"/>
<path d="M21.769 6.464C26.5332 5.61353 31.4327 5.93163 36.047 7.391C36.144 7.42199 36.2452 7.43784 36.347 7.438C36.586 7.43805 36.817 7.35253 36.9984 7.19693C37.1797 7.04133 37.2993 6.82594 37.3356 6.58976C37.3719 6.35357 37.3224 6.11221 37.196 5.90938C37.0697 5.70654 36.875 5.55564 36.647 5.484C31.7263 3.92806 26.5017 3.58836 21.421 4.494C21.2912 4.51616 21.167 4.56373 21.0557 4.634C20.9443 4.70426 20.8479 4.79583 20.772 4.90345C20.6961 5.01107 20.6422 5.13262 20.6134 5.26112C20.5846 5.38962 20.5815 5.52254 20.6042 5.65225C20.6269 5.78196 20.6751 5.90591 20.7458 6.01698C20.8165 6.12805 20.9085 6.22405 21.0165 6.29948C21.1244 6.3749 21.2462 6.42826 21.3748 6.4565C21.5035 6.48473 21.6364 6.48728 21.766 6.464H21.769Z" fill="#323232"/>
<path d="M56.759 27.235C56.6318 27.268 56.5123 27.3257 56.4074 27.4048C56.3025 27.484 56.2142 27.5831 56.1476 27.6964C56.081 27.8097 56.0374 27.935 56.0193 28.0652C56.0012 28.1953 56.0089 28.3278 56.042 28.455C57.4155 33.7642 57.3094 39.3481 55.735 44.6013C54.1607 49.8545 51.1782 54.5764 47.111 58.255C47.0135 58.3431 46.9344 58.4496 46.8781 58.5683C46.8218 58.687 46.7894 58.8156 46.7828 58.9468C46.7695 59.2118 46.862 59.4712 47.04 59.668C47.2179 59.8648 47.4668 59.9828 47.7318 59.9961C47.9968 60.0095 48.2562 59.917 48.453 59.739C52.7919 55.8151 55.9734 50.7779 57.6524 45.1739C59.3313 39.57 59.4436 33.6132 57.977 27.95C57.91 27.6939 57.7441 27.4747 57.5158 27.3407C57.2875 27.2067 57.0153 27.1687 56.759 27.235V27.235Z" fill="#323232"/>
<path d="M50 15C50.5523 15 51 14.5523 51 14C51 13.4477 50.5523 13 50 13C49.4477 13 49 13.4477 49 14C49 14.5523 49.4477 15 50 15Z" fill="#323232"/>
<path d="M41.168 10.471C41.3566 10.6532 41.6092 10.754 41.8714 10.7517C42.1336 10.7494 42.3844 10.6442 42.5698 10.4588C42.7552 10.2734 42.8604 10.0226 42.8627 9.7604C42.865 9.4982 42.7642 9.2456 42.582 9.057L41.691 8.167L44.166 5.691L45.058 6.583C45.2086 6.7331 45.4032 6.83129 45.6134 6.8633C45.8236 6.89531 46.0385 6.85947 46.227 6.761C46.6512 6.53876 47.0938 6.35374 47.55 6.208C47.753 6.14416 47.9304 6.01722 48.0563 5.84564C48.1821 5.67407 48.25 5.46681 48.25 5.254V4H51.75V5.254C51.75 5.46681 51.8179 5.67407 51.9438 5.84564C52.0697 6.01722 52.247 6.14416 52.45 6.208C52.9059 6.35356 53.3482 6.5386 53.772 6.761C53.9606 6.85971 54.1757 6.89567 54.3862 6.86366C54.5966 6.83165 54.7913 6.73332 54.942 6.583L55.834 5.691L58.309 8.167L57.418 9.057C57.2674 9.20746 57.1687 9.40207 57.1363 9.6125C57.1039 9.82294 57.1395 10.0382 57.238 10.227C57.4612 10.6512 57.6466 11.0942 57.792 11.551C57.8558 11.754 57.9828 11.9314 58.1544 12.0572C58.3259 12.1831 58.5332 12.251 58.746 12.251H61C61.2652 12.251 61.5196 12.1456 61.7071 11.9581C61.8947 11.7706 62 11.5162 62 11.251C62 10.9858 61.8947 10.7314 61.7071 10.5439C61.5196 10.3564 61.2652 10.251 61 10.251H59.449C59.411 10.158 59.373 10.065 59.332 9.972L60.432 8.872C60.6195 8.68447 60.7248 8.43016 60.7248 8.165C60.7248 7.89984 60.6195 7.64553 60.432 7.458L56.541 3.57C56.3535 3.38253 56.0992 3.27721 55.834 3.27721C55.5688 3.27721 55.3145 3.38253 55.127 3.57L54.027 4.67C53.934 4.629 53.842 4.59 53.749 4.553V3C53.749 2.73478 53.6437 2.48043 53.4561 2.29289C53.2686 2.10536 53.0142 2 52.749 2H47.249C46.9838 2 46.7294 2.10536 46.5419 2.29289C46.3544 2.48043 46.249 2.73478 46.249 3V4.551C46.156 4.588 46.063 4.627 45.971 4.668L44.871 3.568C44.6835 3.38053 44.4292 3.27521 44.164 3.27521C43.8988 3.27521 43.6445 3.38053 43.457 3.568L39.57 7.459C39.3825 7.64653 39.2772 7.90084 39.2772 8.166C39.2772 8.43116 39.3825 8.68547 39.57 8.873L41.168 10.471Z" fill="#323232"/>
<path d="M61 14C60.7348 14 60.4804 14.1054 60.2929 14.2929C60.1053 14.4804 60 14.7348 60 15V15.75H58.746C58.5332 15.75 58.3259 15.8179 58.1543 15.9438C57.9828 16.0696 57.8558 16.247 57.792 16.45C57.6466 16.9068 57.4612 17.3498 57.238 17.774C57.1395 17.9628 57.1039 18.1781 57.1363 18.3885C57.1686 18.5989 57.2673 18.7935 57.418 18.944L58.309 19.834L55.834 22.31L54.942 21.418C54.7912 21.2675 54.5963 21.169 54.3857 21.137C54.175 21.105 53.9597 21.1411 53.771 21.24C53.3477 21.4627 52.9057 21.6478 52.45 21.793C52.247 21.8568 52.0696 21.9838 51.9437 22.1554C51.8179 22.3269 51.75 22.5342 51.75 22.747V24H51.094L48.794 20.014C48.751 19.9497 48.7003 19.8909 48.643 19.839C49.9186 20.1397 51.2574 20.0161 52.4564 19.4872C53.6554 18.9583 54.6493 18.0527 55.2872 16.9079C55.9251 15.7632 56.1723 14.4416 55.9913 13.1436C55.8103 11.8457 55.2109 10.6422 54.2841 9.71559C53.3574 8.78902 52.1537 8.18994 50.8557 8.00922C49.5577 7.82851 48.2362 8.076 47.0916 8.71417C45.9469 9.35234 45.0416 10.3464 44.5129 11.5455C43.9843 12.7447 43.861 14.0835 44.162 15.359C44.1101 15.3017 44.0513 15.251 43.987 15.208L38.015 11.759C37.7955 11.6323 37.5361 11.5936 37.2893 11.6507C37.0424 11.7079 36.8264 11.8567 36.685 12.067L35.008 14.559C34.2348 14.3086 33.4487 14.1003 32.653 13.935L32.447 10.935C32.4295 10.6819 32.3165 10.445 32.1308 10.2721C31.9451 10.0992 31.7007 10.0034 31.447 10.004H24.547C24.2933 10.0034 24.0489 10.0992 23.8632 10.2721C23.6775 10.445 23.5645 10.6819 23.547 10.935L23.341 13.935C22.5453 14.1003 21.7591 14.3086 20.986 14.559L19.309 12.067C19.1834 11.8838 18.9997 11.7483 18.7876 11.6824C18.5754 11.6165 18.3473 11.6241 18.14 11.704L17.896 11.563C17.913 11.373 17.921 11.185 17.921 11C17.921 10.815 17.913 10.627 17.896 10.437L19.356 9.6C19.4698 9.53442 19.5696 9.44706 19.6496 9.34292C19.7296 9.23877 19.7884 9.11988 19.8225 8.99303C19.8565 8.86618 19.8653 8.73385 19.8482 8.60362C19.8312 8.47338 19.7886 8.34779 19.723 8.234L17.723 4.77C17.6577 4.65581 17.5704 4.55563 17.4663 4.47521C17.3622 4.39479 17.2433 4.3357 17.1163 4.30133C16.9893 4.26695 16.8568 4.25798 16.7263 4.27491C16.5958 4.29184 16.47 4.33435 16.356 4.4L14.901 5.24C14.5927 5.02649 14.2672 4.83885 13.928 4.679V3C13.928 2.73478 13.8226 2.48043 13.6351 2.29289C13.4476 2.10536 13.1932 2 12.928 2H8.92799C8.66278 2 8.40842 2.10536 8.22089 2.29289C8.03335 2.48043 7.92799 2.73478 7.92799 3V4.681C7.58907 4.84148 7.26368 5.02909 6.95499 5.242L5.49999 4.4C5.38622 4.3333 5.26038 4.28977 5.12972 4.2719C4.99905 4.25404 4.86615 4.26219 4.73865 4.2959C4.61115 4.32961 4.49157 4.38821 4.38681 4.46831C4.28205 4.54842 4.19417 4.64846 4.12823 4.76267C4.06229 4.87688 4.01959 5.00301 4.00259 5.13379C3.98559 5.26457 3.99463 5.39742 4.02918 5.52469C4.06374 5.65196 4.12312 5.77115 4.20392 5.87537C4.28473 5.9796 4.38535 6.06682 4.49999 6.132L6.53299 7.308C6.71241 7.41139 6.91951 7.45652 7.12568 7.43718C7.33185 7.41783 7.52693 7.33496 7.68399 7.2C8.1494 6.80174 8.68438 6.49289 9.26199 6.289C9.45671 6.22 9.62527 6.0924 9.74453 5.92372C9.86378 5.75505 9.92787 5.55358 9.92799 5.347V4H11.928V5.349C11.9279 5.55575 11.9919 5.75744 12.1112 5.92631C12.2304 6.09519 12.3991 6.22295 12.594 6.292C13.172 6.49514 13.7074 6.80369 14.173 7.202C14.3302 7.33643 14.5252 7.41881 14.7311 7.43779C14.9371 7.45677 15.1439 7.41143 15.323 7.308L16.49 6.634L17.49 8.366L16.324 9.04C16.1453 9.14331 16.0029 9.29942 15.9164 9.48688C15.8299 9.67434 15.8036 9.88397 15.841 10.087C15.957 10.6901 15.957 11.3099 15.841 11.913C15.8116 12.0778 15.8245 12.2474 15.8786 12.4059C15.9326 12.5643 16.026 12.7065 16.15 12.819L12.014 15.208C11.7944 15.3344 11.631 15.5394 11.5567 15.7816C11.4825 16.0239 11.5029 16.2853 11.614 16.513L11.927 17.152V18H9.92699V16.651C9.92687 16.4444 9.86278 16.243 9.74353 16.0743C9.62427 15.9056 9.45571 15.778 9.26099 15.709C8.68388 15.5056 8.14926 15.1974 7.68399 14.8C7.52672 14.6654 7.33153 14.5828 7.12536 14.5639C6.91919 14.5449 6.71221 14.5903 6.53299 14.694L5.36599 15.368L4.36599 13.636L5.53199 12.962C5.71091 12.8588 5.8535 12.7028 5.94016 12.5153C6.02682 12.3278 6.05331 12.1181 6.01599 11.915C5.89865 11.312 5.89865 10.692 6.01599 10.089C6.05376 9.88556 6.02749 9.67542 5.9408 9.48754C5.85411 9.29966 5.71128 9.14329 5.53199 9.04L3.49999 7.866C3.27005 7.73339 2.99685 7.69756 2.74048 7.76639C2.48412 7.83521 2.2656 8.00306 2.13299 8.233C2.00038 8.46294 1.96455 8.73615 2.03338 8.99251C2.1022 9.24887 2.27005 9.46739 2.49999 9.6L3.95199 10.438C3.93499 10.628 3.92799 10.815 3.92799 11.002C3.92799 11.189 3.93499 11.376 3.95199 11.566L2.49999 12.4C2.27032 12.5326 2.10273 12.751 2.03409 13.0072C1.96546 13.2634 2.00139 13.5363 2.13399 13.766L4.13399 17.23C4.19932 17.3441 4.2865 17.4441 4.39053 17.5245C4.49456 17.6048 4.61341 17.6638 4.74029 17.6982C4.86716 17.7326 4.99956 17.7416 5.12991 17.7247C5.26027 17.7079 5.38603 17.6655 5.49999 17.6L6.95499 16.76C7.26368 16.9729 7.58907 17.1605 7.92799 17.321V19C7.93273 19.1865 7.99105 19.3677 8.09599 19.522C7.91737 19.5171 7.74069 19.5602 7.58435 19.6467C7.428 19.7332 7.2977 19.86 7.20699 20.014L3.75899 25.986C3.63215 26.2053 3.5933 26.4646 3.65029 26.7115C3.70727 26.9584 3.85585 27.1744 4.06599 27.316L6.55899 28.993C6.30845 29.7658 6.10014 30.5516 5.93499 31.347L2.93499 31.554C2.68173 31.5713 2.44452 31.6842 2.27145 31.8699C2.09838 32.0556 2.0024 32.3002 2.00299 32.554V39.454C2.0024 39.7078 2.09838 39.9524 2.27145 40.1381C2.44452 40.3238 2.68173 40.4367 2.93499 40.454L5.93499 40.661C6.10014 41.4564 6.30845 42.2422 6.55899 43.015L4.06599 44.684C3.85585 44.8255 3.70727 45.0416 3.65029 45.2885C3.5933 45.5354 3.63215 45.7947 3.75899 46.014L7.20699 51.986C7.33339 52.2058 7.53859 52.3694 7.78106 52.4437C8.02353 52.518 8.28516 52.4973 8.51299 52.386L11.219 51.062C11.7608 51.6657 12.3346 52.2398 12.938 52.782L11.615 55.488C11.5054 55.7152 11.4858 55.9754 11.5599 56.2165C11.6341 56.4576 11.7967 56.6617 12.015 56.788L17.987 60.237C18.2064 60.3637 18.4658 60.4024 18.7127 60.3453C18.9596 60.2881 19.1756 60.1393 19.317 59.929L20.994 57.437C21.7672 57.6872 22.5533 57.8955 23.349 58.061L23.555 61.061C23.5725 61.3141 23.6855 61.551 23.8712 61.7239C24.0569 61.8968 24.3013 61.9926 24.555 61.992H24.624C24.7552 61.9831 24.8833 61.9484 25.001 61.89C25.1188 61.8315 25.2239 61.7504 25.3102 61.6513C25.3966 61.5522 25.4626 61.4371 25.5044 61.3124C25.5463 61.1878 25.5631 61.0561 25.554 60.925L25.294 57.152C25.2785 56.9288 25.1886 56.7173 25.0386 56.5512C24.8887 56.3852 24.6874 56.2742 24.467 56.236C23.2658 56.0294 22.0855 55.7162 20.94 55.3C20.73 55.2232 20.5004 55.2191 20.2878 55.2881C20.0751 55.3572 19.8918 55.4955 19.767 55.681L18.182 58.036L13.826 55.521L15.077 52.963C15.1751 52.7622 15.2031 52.5343 15.1565 52.3157C15.1099 52.0971 14.9914 51.9004 14.82 51.757C13.8867 50.9742 13.0238 50.1113 12.241 49.178C12.0976 49.0066 11.9009 48.8881 11.6823 48.8415C11.4637 48.7949 11.2358 48.8229 11.035 48.921L8.47299 50.178L5.95799 45.822L8.31299 44.237C8.49848 44.1122 8.6368 43.9289 8.70586 43.7162C8.77492 43.5036 8.77074 43.274 8.69399 43.064C8.27777 41.9185 7.96453 40.7382 7.75799 39.537C7.71958 39.3166 7.60836 39.1154 7.44212 38.9657C7.27587 38.8159 7.06421 38.7262 6.84099 38.711L3.99999 38.515V33.485L6.84099 33.285C7.06421 33.2698 7.27587 33.1801 7.44212 33.0303C7.60836 32.8806 7.71958 32.6794 7.75799 32.459C7.96453 31.2578 8.27777 30.0775 8.69399 28.932C8.77074 28.722 8.77492 28.4924 8.70586 28.2798C8.6368 28.0671 8.49848 27.8838 8.31299 27.759L5.95799 26.178L8.47299 21.822L11.031 23.073C11.2318 23.1711 11.4597 23.1991 11.6783 23.1525C11.8969 23.1059 12.0936 22.9875 12.237 22.816C13.0198 21.8827 13.8827 21.0198 14.816 20.237C14.9874 20.0936 15.1059 19.8969 15.1525 19.6783C15.1991 19.4597 15.1711 19.2318 15.073 19.031L13.822 16.473L18.178 13.958L19.763 16.313C19.8878 16.4985 20.0711 16.6368 20.2838 16.7059C20.4964 16.7749 20.726 16.7708 20.936 16.694C22.0815 16.2776 23.2618 15.9644 24.463 15.758C24.6834 15.7198 24.8847 15.6088 25.0346 15.4428C25.1846 15.2767 25.2745 15.0652 25.29 14.842L25.49 12H30.52L30.72 14.842C30.7355 15.0652 30.8254 15.2767 30.9753 15.4428C31.1253 15.6088 31.3265 15.7198 31.547 15.758C32.7479 15.9643 33.9279 16.2775 35.073 16.694C35.2831 16.771 35.5129 16.7753 35.7258 16.7062C35.9386 16.6372 36.1221 16.4987 36.247 16.313L37.832 13.958L42.188 16.473L40.937 19.031C40.8389 19.2318 40.8109 19.4597 40.8575 19.6783C40.9041 19.8969 41.0225 20.0936 41.194 20.237C42.1273 21.0198 42.9902 21.8827 43.773 22.816C43.9164 22.9875 44.1131 23.1059 44.3317 23.1525C44.5503 23.1991 44.7782 23.1711 44.979 23.073L47.537 21.822L50.052 26.178L47.696 27.763C47.5107 27.8879 47.3726 28.0714 47.3037 28.284C47.2348 28.4966 47.2391 28.7261 47.316 28.936C47.7322 30.0815 48.0455 31.2618 48.252 32.463C48.2904 32.6834 48.4016 32.8846 48.5679 33.0343C48.7341 33.1841 48.9458 33.2738 49.169 33.289L52.01 33.489V38.519L49.169 38.719C48.9458 38.7343 48.7341 38.8239 48.5679 38.9737C48.4016 39.1234 48.2904 39.3246 48.252 39.545C48.0455 40.7462 47.7322 41.9265 47.316 43.072C47.2391 43.2819 47.2348 43.5114 47.3037 43.724C47.3726 43.9367 47.5107 44.1201 47.696 44.245L50.052 45.83L47.537 50.186L44.979 48.935C44.7782 48.8369 44.5503 48.8089 44.3317 48.8555C44.1131 48.9021 43.9164 49.0206 43.773 49.192C42.9902 50.1253 42.1273 50.9882 41.194 51.771C41.0225 51.9144 40.9041 52.1111 40.8575 52.3297C40.8109 52.5483 40.8389 52.7762 40.937 52.977L42.188 55.535L37.832 58.05L36.247 55.695C36.1221 55.5093 35.9386 55.3708 35.7258 55.3018C35.5129 55.2327 35.2831 55.237 35.073 55.314C33.9279 55.7303 32.7478 56.0435 31.547 56.25C31.3265 56.2882 31.1253 56.3992 30.9753 56.5652C30.8254 56.7313 30.7355 56.9428 30.72 57.166L30.515 60H28.5C28.2348 60 27.9804 60.1054 27.7929 60.2929C27.6053 60.4804 27.5 60.7348 27.5 61C27.5 61.2652 27.6053 61.5196 27.7929 61.7071C27.9804 61.8946 28.2348 62 28.5 62H31.448C31.7017 62.0006 31.9461 61.9048 32.1318 61.7319C32.3175 61.559 32.4305 61.3221 32.448 61.069L32.654 58.069C33.4496 57.9035 34.2358 57.6952 35.009 57.445L36.686 59.937C36.8274 60.1473 37.0434 60.2961 37.2903 60.3533C37.5371 60.4104 37.7965 60.3717 38.016 60.245L43.988 56.796C44.2063 56.6697 44.3689 56.4656 44.443 56.2245C44.5172 55.9834 44.4976 55.7232 44.388 55.496L43.064 52.79C43.6679 52.2481 44.2421 51.6739 44.784 51.07L47.49 52.394C47.7178 52.5053 47.9795 52.526 48.2219 52.4517C48.4644 52.3774 48.6696 52.2138 48.796 51.994L52.244 46.022C52.3708 45.8027 52.4097 45.5434 52.3527 45.2965C52.2957 45.0496 52.1471 44.8336 51.937 44.692L49.444 43.015C49.6937 42.2421 49.9017 41.4563 50.067 40.661L53.067 40.454C53.3203 40.4367 53.5575 40.3238 53.7305 40.1381C53.9036 39.9524 53.9996 39.7078 53.999 39.454V32.554C53.9996 32.3002 53.9036 32.0556 53.7305 31.8699C53.5575 31.6842 53.3203 31.5713 53.067 31.554L50.067 31.347C49.9017 30.5517 49.6937 29.7659 49.444 28.993L51.937 27.316C52.1438 27.1751 52.2903 26.9618 52.3475 26.7181C52.4047 26.4745 52.3685 26.2182 52.246 26H52.746C53.0112 26 53.2656 25.8946 53.4531 25.7071C53.6406 25.5196 53.746 25.2652 53.746 25V23.449C53.8393 23.4117 53.9323 23.3727 54.025 23.332L55.125 24.432C55.3125 24.6195 55.5668 24.7248 55.832 24.7248C56.0972 24.7248 56.3515 24.6195 56.539 24.432L60.428 20.543C60.6155 20.3555 60.7208 20.1012 60.7208 19.836C60.7208 19.5708 60.6155 19.3165 60.428 19.129L59.328 18.029C59.369 17.936 59.407 17.843 59.445 17.75H61C61.2652 17.75 61.5196 17.6446 61.7071 17.4571C61.8946 17.2696 62 17.0152 62 16.75V15C62 14.7348 61.8946 14.4804 61.7071 14.2929C61.5196 14.1054 61.2652 14 61 14ZM11.219 20.939L9.29999 20H12.157C11.843 20.312 11.514 20.61 11.219 20.939ZM50 10C50.7911 10 51.5645 10.2346 52.2223 10.6741C52.8801 11.1136 53.3928 11.7384 53.6955 12.4693C53.9983 13.2002 54.0775 14.0044 53.9231 14.7804C53.7688 15.5563 53.3878 16.269 52.8284 16.8284C52.269 17.3878 51.5563 17.7688 50.7804 17.9231C50.0044 18.0775 49.2002 17.9983 48.4693 17.6955C47.7384 17.3928 47.1136 16.8801 46.6741 16.2223C46.2346 15.5645 46 14.7911 46 14C46 12.9391 46.4214 11.9217 47.1716 11.1716C47.9217 10.4214 48.9391 10 50 10V10ZM47.487 19.615L44.781 20.939C44.2391 20.3351 43.6649 19.7609 43.061 19.219L44.385 16.513C44.4169 16.4358 44.4387 16.3548 44.45 16.272C44.753 17.0077 45.1986 17.6762 45.7612 18.2388C46.3238 18.8014 46.9923 19.247 47.728 19.55C47.6453 19.5619 47.5644 19.5837 47.487 19.615V19.615Z" fill="#323232"/>
<path d="M13.928 11C13.928 10.4067 13.752 9.82664 13.4224 9.33329C13.0927 8.83994 12.6242 8.45543 12.076 8.22836C11.5279 8.0013 10.9247 7.94189 10.3427 8.05765C9.76077 8.1734 9.22622 8.45912 8.80666 8.87868C8.3871 9.29824 8.10138 9.83279 7.98562 10.4147C7.86987 10.9967 7.92928 11.5999 8.15634 12.1481C8.3834 12.6962 8.76792 13.1648 9.26127 13.4944C9.75462 13.8241 10.3346 14 10.928 14C11.7236 14 12.4867 13.6839 13.0493 13.1213C13.6119 12.5587 13.928 11.7957 13.928 11ZM9.92798 11C9.92798 10.8022 9.98663 10.6089 10.0965 10.4444C10.2064 10.28 10.3626 10.1518 10.5453 10.0761C10.728 10.0004 10.9291 9.98063 11.1231 10.0192C11.3171 10.0578 11.4952 10.153 11.6351 10.2929C11.7749 10.4327 11.8702 10.6109 11.9088 10.8049C11.9473 10.9989 11.9275 11.2 11.8519 11.3827C11.7762 11.5654 11.648 11.7216 11.4835 11.8315C11.3191 11.9414 11.1258 12 10.928 12C10.6628 12 10.4084 11.8946 10.2209 11.7071C10.0333 11.5196 9.92798 11.2652 9.92798 11Z" fill="#323232"/>
</svg>
