<svg width="241" height="280" viewBox="0 0 241 280" fill="none" xmlns="http://www.w3.org/2000/svg">
    <rect width="138.564" height="42" transform="matrix(0.866025 0.5 0 1 0.0683594 168)" fill="#005C83"/>
    <rect width="138.564" height="42" transform="matrix(-0.866025 0.5 0 1 240.068 168)" fill="#005C83"/>
    <path d="M0.0683594 111.282L120.068 42.0002V0.000198364L0.0683594 69.2822V111.282Z" fill="#DA6E3D"/>
    <path d="M83.9828 20.839L138.97 53.0735L175.335 32.3985L120.068 0.000275305L83.9828 20.839Z" fill="#DA6E3D"/>
    <path d="M239.799 45.0218L182.933 78.3578L146.569 57.6828L203.723 24.1775L239.799 45.0218Z" fill="#DA6E3D"/>
    <rect width="90.1796" height="41.884" transform="matrix(-0.000777001 1 0.864281 0.503009 0.0703125 69.3447)"
          fill="#DA6E3D"/>
    <rect width="90.1796" height="41.884" transform="matrix(-0.000777001 -1 0.864281 -0.503009 203.869 179.248)"
          fill="#DA6E3D"/>
    <path d="M120.068 51.5L194.547 94.25H45.5902L120.068 51.5Z" fill="#005C83"/>
    <path d="M120.068 137L45.5902 94.25L194.547 94.25L120.068 137Z" fill="#005C83"/>
</svg>
