<?xml version="1.0" encoding="UTF-8"?>
<!DOCTYPE svg PUBLIC "-//W3C//DTD SVG 1.1//EN" "http://www.w3.org/Graphics/SVG/1.1/DTD/svg11.dtd">
<!-- Creator: CorelDRAW 2020 (64-Bit) -->
<svg xmlns="http://www.w3.org/2000/svg" xml:space="preserve" width="117.56mm" height="50mm" version="1.1" style="shape-rendering:geometricPrecision; text-rendering:geometricPrecision; image-rendering:optimizeQuality; fill-rule:evenodd; clip-rule:evenodd"
viewBox="0 0 11753.08 4998.75"
 xmlns:xlink="http://www.w3.org/1999/xlink"
 xmlns:xodm="http://www.corel.com/coreldraw/odm/2003">
 <defs>
  <style type="text/css">
   <![CDATA[
    .fil2 {fill:#67C2C7}
    .fil0 {fill:#1CBBEE}
    .fil1 {fill:#67C2C7;fill-rule:nonzero}
   ]]>
  </style>
 </defs>
 <g id="Слой_x0020_1">
  <metadata id="CorelCorpID_0Corel-Layer"/>
  <g id="_2783677510944">
   <path class="fil0" d="M3284.9 46.96l-0.26 0 -354.92 0c0,0 -381.84,-28.26 -658.86,447.43 -276.88,475.68 -598.25,1027.63 -598.25,1027.63 0,0 -321.25,-551.96 -598.27,-1027.63 -276.89,-475.68 -658.85,-447.43 -658.85,-447.43l-354.81 0c-46.43,0 -74.97,49.83 -53.29,89.67l1612.15 2769.22c10.34,18.67 30.23,31.29 53.07,31.29 23.06,0 43.23,-12.88 53.43,-31.84l1609.11 -2763.87c26.52,-39.59 -1.41,-94.34 -50.25,-94.47z"/>
   <path class="fil0" d="M9267.54 46.96l-355.04 0c0,0 -381.96,-28.26 -658.85,447.43 -277.02,475.68 -598.27,1027.63 -598.27,1027.63 0,0 -321.4,-551.96 -598.27,-1027.63 -276.99,-475.68 -658.84,-447.43 -658.84,-447.43l-354.8 0c-46.43,0 -75.13,49.83 -53.46,89.67l1612.19 2769.22c10.46,18.67 30.34,31.29 53.18,31.29 23.08,0 43.09,-12.88 53.43,-31.84l1608.98 -2763.87c26.65,-39.59 -1.4,-94.34 -50.25,-94.47z"/>
   <path class="fil0" d="M4664.06 0.01c823.98,0 1492.02,668 1492.02,1492.03 0,137.4 -18.62,270.43 -53.43,396.79l-2144.36 0c138.75,246.41 402.76,412.84 705.77,412.84 208.65,0 398.79,-78.94 542.39,-208.58l440 521.81c-262.35,229.87 -606.18,369.19 -982.39,369.19 -824.01,0 -1492.03,-668.02 -1492.03,-1492.05 0,-824.02 668.01,-1492.03 1492.03,-1492.03zm-771.85 1246.88l1543.68 0c-103.94,-327.3 -410.15,-564.46 -771.84,-564.46 -361.7,0 -667.9,237.16 -771.85,564.46z"/>
   <path class="fil1" d="M1618.54 3674.92l0 436.8 80.34 0 0 -154.27 70.92 0c52.66,0 91.69,-13.6 117.58,-40.19 26.66,-26.61 39.65,-60.3 39.65,-99.9 0,-39.61 -12.37,-72.7 -37.86,-100.49 -25.38,-27.78 -62.62,-41.95 -112.87,-41.95l-157.76 0zm80.34 208.64l0 -133.58 79.21 0c41.94,0 66.8,28.97 66.8,66.19 0,37.22 -25.49,67.38 -72.68,67.38l-73.33 0zm568.29 235.85c48.99,0 89.28,-14.21 120.53,-41.96 31.36,-28.37 47.31,-69.16 47.31,-122.36l0 -280.17 -81.62 0 0 273.08c0,59.7 -33.67,92.8 -86.22,92.8 -53.82,0 -86.34,-31.93 -86.34,-92.8l0 -273.08 -80.98 0 0 280.17c0,53.2 15.93,93.99 47.31,122.36 31.38,27.75 71.56,41.96 120.01,41.96zm702.98 -7.69l-109.95 -173.19c60.83,-19.51 91.59,-70.35 91.59,-127.08 0,-38.41 -12.38,-70.34 -37.75,-96.95 -25.4,-26.59 -61.47,-39.59 -108.79,-39.59l-162.48 0 0 436.8 80.35 0 0 -163.72 53.81 0 97.45 163.72 95.79 0zm-164.91 -361.74c40.18,0 63.9,27.18 63.9,62.05 0,35.46 -23.72,63.24 -72.71,63.24l-73.32 0 0 -125.3 82.13 0zm344.22 361.74l80.96 0 0 -436.8 -80.96 0 0 436.8zm374.44 0l0 -177.92 179.7 0 0 -76.85 -179.7 0 0 -105.19 205.07 0 0 -76.84 -285.55 0 0 436.8 80.48 0zm384.38 0l80.99 0 0 -436.8 -80.99 0 0 436.8zm584.23 0l0 -75.67 -209.27 0 0 -107.56 193.33 0 0 -75.09 -193.33 0 0 -102.84 209.27 0 0 -75.63 -290.27 0 0 436.8 290.27 0zm359.67 0c65.54,0 117.56,-19.52 154.81,-58.53 37.75,-39 56.77,-92.21 56.77,-158.98 0,-68 -18.38,-121.17 -55.63,-160.2 -37.24,-39.6 -87.99,-59.1 -152.53,-59.1l-168.47 0 0 436.8 165.05 0zm-84.58 -359.39l88 0c39.68,0 69.76,13.6 91.71,40.2 21.8,26.62 32.53,59.71 32.53,99.9 0,40.78 -11.24,75.07 -33.18,101.68 -21.79,26.58 -52.03,40.19 -91.57,40.19l-87.49 0 0 -281.97zm783.44 359.39l97.45 -295.55 98.71 295.55 63.89 0 145.39 -436.8 -88.13 0 -90.43 299.68 -105.2 -299.68 -48.98 0 -102.92 299.68 -92.21 -299.68 -87.98 0 145.87 436.8 64.53 0zm900.4 0l-167.33 -436.8 -61.97 0 -169.14 436.8 85.72 0 36.09 -99.3 154.84 0 36.09 99.3 85.7 0zm-144.76 -172.01l-108.26 0 54.44 -149.54 53.83 149.54zm356.6 172.01l81.63 0 0 -358.78 125.88 0 0 -78.02 -333.38 0 0 78.02 125.87 0 0 358.78zm668.79 0l0 -75.67 -209.29 0 0 -107.56 193.35 0 0 -75.09 -193.35 0 0 -102.84 209.29 0 0 -75.63 -290.27 0 0 436.8 290.27 0zm522.13 0l-109.93 -173.19c60.83,-19.51 91.55,-70.35 91.55,-127.08 0,-38.41 -12.35,-70.34 -37.73,-96.95 -25.51,-26.59 -61.47,-39.59 -108.8,-39.59l-162.61 0 0 436.8 80.48 0 0 -163.72 53.7 0 97.58 163.72 95.78 0zm-164.92 -361.74c40.18,0 63.9,27.18 63.9,62.05 0,35.46 -23.72,63.24 -72.83,63.24l-73.2 0 0 -125.3 82.13 0z"/>
   <path class="fil2" d="M9106.58 3246.13c-101.5,47.8 -212.46,75.8 -335.67,74.8l-456.06 0.21c22.32,930.31 783.44,1677.61 1719.03,1677.61 933.18,0 1696.86,-744.57 1719.19,-1677.61l-455.96 -0.21c-123.19,1 -234.14,-27 -335.68,-74.8 18.64,524.95 -401.85,960.98 -927.43,960.98 -524.63,0 -946.15,-436.61 -927.44,-960.98z"/>
   <path class="fil0" d="M10034.02 46.61c-22.82,0 -42.85,12.64 -53.17,31.29l-1416.81 2409.58c-78.81,133.75 -150.34,271.74 -195.12,421.43l405.19 0.22c243.98,0 468.8,-108.22 591.52,-320.76l668.38 -1126.59 668.42 1126.59c122.68,212.54 347.4,320.76 591.37,320.76l405.32 -0.22c-44.77,-149.69 -116.32,-287.69 -195.27,-421.43l-1416.78 -2409.58c-10.32,-18.66 -30.21,-31.29 -53.07,-31.29z"/>
  </g>
 </g>
</svg>
